# xmcd
#
# Track frame offsets:
# 182
# 19670
# 33862
# 56425
# 73355
# 83052
# 96735
# 116052
# 133525
# 153220
# 165892
# 190702
# 212805
# 224757
# 251220
# 263967
#
# Disc length: 3709 seconds
#
#
# Revision: 2
# Processed by: cddbd v1.5.1PL0 Copyright (c) Steve Scherf et al.
# Submitted via: FreeRIP 2.91 
#
DISCID=e80e7b10
DTITLE=The Ray Gelato Giants - The Full Flavour
DYEAR=1900
DGENRE=
TTITLE0=Basin Street Blues/Sleepy Time Down South
TTITLE1=Undecided
TTITLE2=Dark Eyes
TTITLE3=Don't Let It Go To Your Head
TTITLE4=Forget About Livin'
TTITLE5=That's Amore
TTITLE6=That's Life
TTITLE7=Exactly Like You
TTITLE8=Up A Lazy River
TTITLE9=Orange Coloured Sky
TTITLE10=Apple Honey
TTITLE11=Under A Blanket Of Blue
TTITLE12=As Time Goes By
TTITLE13=Since You Moved In With Me
TTITLE14=Caterina
TTITLE15=That Old Black Magic
EXTD=
EXTT0=
EXTT1=
EXTT2=
EXTT3=
EXTT4=
EXTT5=
EXTT6=
EXTT7=
EXTT8=
EXTT9=
EXTT10=
EXTT11=
EXTT12=
EXTT13=
EXTT14=
EXTT15=
PLAYORDER=
